<svg id="Capa_1" enable-background="new 0 0 512 512" height="512" viewBox="0 0 512 512" width="512" xmlns="http://www.w3.org/2000/svg"><path d="m387.553 232.888c-41.649 0-75.412 64.586-75.412 106.235s33.763 75.412 75.412 75.412 75.412-33.763 75.412-75.412-33.764-106.235-75.412-106.235zm0 145.686c-21.754 0-39.451-17.697-39.451-39.451 0-11.78 5.08-31.615 16.428-49.371 9.802-15.336 19.139-20.904 23.023-20.904s13.221 5.568 23.023 20.904c11.348 17.756 16.428 37.591 16.428 49.371 0 21.754-17.697 39.451-39.451 39.451z" fill="#f9d171"/><path d="m387.553 232.887c-27.475 0-51.515 28.108-64.698 59.195 7.983 5.93 17.862 9.444 28.548 9.444h6.618c1.887-3.954 4.041-7.913 6.509-11.775 9.802-15.336 19.139-20.904 23.023-20.904s13.221 5.567 23.023 20.904c2.468 3.862 4.622 7.821 6.509 11.775h6.618c10.686 0 20.565-3.515 28.548-9.444-13.183-31.087-37.223-59.195-64.698-59.195z" fill="#ffa93f"/><g fill="#f9d171"><path d="m423.703 271.526h-72.3c-9.93 0-17.98-8.05-17.98-17.98s8.05-17.98 17.98-17.98l36.15-17.98 36.15 17.98c9.93 0 17.98 8.05 17.98 17.98s-8.05 17.98-17.98 17.98z"/><path d="m369.932 118.153h35.96v95.722h-35.96z"/><path d="m67.484 172.179h204.663v41.097h-204.663z" transform="matrix(.707 -.707 .707 .707 -86.541 176.527)"/></g><path d="m369.932 118.153h35.96v50.749h-35.96z" fill="#ffa93f"/><path d="m164.582 168.901h58.12l34.003-34.002-29.06-29.061z" fill="#ffa93f"/><path d="m504.5 115.231v-35.254c0-13.073-10.597-23.67-23.67-23.67h-459.008c-7.91 0-14.322 6.412-14.322 14.322v53.95c0 7.91 6.412 14.322 14.322 14.322h459.008c13.073 0 23.67-10.597 23.67-23.67z" fill="#c94d2f"/><path d="m423.703 235.566h-72.3c-9.93 0-17.98-8.05-17.98-17.98s8.05-17.98 17.98-17.98h72.3c9.93 0 17.98 8.05 17.98 17.98s-8.05 17.98-17.98 17.98z" fill="#ffa93f"/><path d="m117.427 7.5h-35.253c-13.073 0-23.67 10.597-23.67 23.67v473.33h82.594v-473.33c-.001-13.073-10.598-23.67-23.671-23.67z" fill="#f86745"/><path d="m317.417 99.692c-3.123-2.722-7.86-2.396-10.582.727-7.103 8.149-19.693 8.107-26.758 0-2.722-3.123-7.459-3.448-10.582-.727s-3.448 7.459-.727 10.582c13.039 14.963 36.297 15.006 49.375 0 2.722-3.123 2.397-7.86-.726-10.582z"/><path d="m236.872 79.715-27.819-7.455c-4.002-1.072-8.114 1.302-9.186 5.303s1.302 8.114 5.303 9.186l9.483 2.541c-1.49 2.776-.64 4.366-.889 15.525 0 4.142 3.358 7.5 7.5 7.5s7.5-3.358 7.5-7.5v-11.744c3.823.961 4.581 1.39 6.171 1.39 3.312 0 6.342-2.21 7.24-5.561 1.073-4.001-1.302-8.113-5.303-9.185z"/><path d="m377.861 72.26-27.82 7.455c-4.001 1.072-6.375 5.184-5.303 9.186.898 3.351 3.928 5.561 7.24 5.561 1.591 0 2.362-.432 6.172-1.39v11.744c0 4.142 3.357 7.5 7.5 7.5 4.142 0 7.5-3.358 7.5-7.5-.245-10.981.608-12.737-.889-15.525l9.483-2.541c4.001-1.072 6.375-5.185 5.303-9.186s-5.185-6.375-9.186-5.304z"/><path d="m480.83 48.808h-332.232v-17.638c0-17.188-13.983-31.17-31.17-31.17h-35.254c-17.188 0-31.171 13.983-31.171 31.17v17.637h-29.181c-12.033.001-21.822 9.79-21.822 21.822v53.95c0 12.033 9.789 21.822 21.822 21.822h29.181v57.064c0 4.142 3.358 7.5 7.5 7.5 4.143 0 7.5-3.358 7.5-7.5 0-21.369 0-124.647 0-172.295 0-8.917 7.254-16.17 16.171-16.17h35.254c8.916 0 16.17 7.254 16.17 16.17v465.83h-67.595v-263.534c0-4.142-3.357-7.5-7.5-7.5-4.142 0-7.5 3.358-7.5 7.5v271.034c0 4.142 3.358 7.5 7.5 7.5h82.595c4.142 0 7.5-3.358 7.5-7.5v-250.887l107.211-107.211h106.623v45.704h-11.029c-22.607 0-33.987 27.461-18.036 43.46-7.888 7.913-9.625 19.842-4.654 29.551-14.722 22.514-24.072 51.025-24.072 74.005 0 45.718 37.194 82.912 82.912 82.912 16.817 0 33.021-5.02 46.858-14.516 3.416-2.344 4.284-7.012 1.94-10.428-2.344-3.415-7.012-4.283-10.428-1.939-44.586 30.597-106.282-1.22-106.282-56.029 0-19.029 7.822-43.482 19.879-63.042 7.533 3.991 13.77 2.809 23.347 2.945-13.965 18.334-22.265 43.214-22.265 60.097 0 25.889 21.062 46.951 46.951 46.951s46.951-21.063 46.951-46.951c0-16.913-8.322-41.791-22.265-60.097 9.543-.013 16.105.891 23.346-2.945 12.056 19.559 19.878 44.012 19.878 63.042 0 13.141-3.775 25.904-10.919 36.909-2.255 3.474-1.267 8.119 2.207 10.375 3.475 2.255 8.12 1.267 10.375-2.208 8.726-13.442 13.337-29.029 13.337-45.076 0-22.98-9.349-51.492-24.071-74.005 4.97-9.707 3.234-21.638-4.654-29.551 15.958-16.007 4.556-43.46-18.036-43.46h-10.311v-45.704h67.438c17.187 0 31.17-13.983 31.17-31.17v-35.254c.001-17.187-13.982-31.17-31.169-31.17zm-459.008 82.593c-3.762 0-6.822-3.06-6.822-6.822v-53.95c0-3.762 3.061-6.822 6.822-6.822h29.181v67.594zm126.776 15h27.877l-27.877 27.878zm0 85.999v-36.908l49.091-49.091h36.907zm270.906 106.723c0 17.618-14.333 31.951-31.951 31.951s-31.951-14.333-31.951-31.951c0-18.749 13.349-48.669 27.818-60.097h8.266c14.466 11.424 27.818 41.349 27.818 60.097zm-74.49-77.288c-7.929-6.114-3.547-18.766 6.386-18.769 1.987 0 75.804.001 72.306 0 10.883.004 14.73 14.992 4.527 19.917-1.465.705-3.065 1.044-4.53 1.044-77.745-.001-74.901.741-78.689-2.192zm89.169-44.249c0 5.778-4.699 10.479-10.477 10.48-.103 0-74.563 0-72.306 0-5.777-.001-10.477-4.702-10.477-10.48 0-5.779 4.702-10.48 10.48-10.48h72.3c5.778-.001 10.48 4.701 10.48 10.48zm-35.791-25.481h-20.96v-45.704h20.96zm98.608-76.874c0 8.916-7.254 16.17-16.17 16.17-8.934 0-323.333 0-332.232 0v-67.593h332.232c8.916 0 16.17 7.254 16.17 16.17z"/></svg>